<?xml version="1.0" standalone="no"?>
<!DOCTYPE svg PUBLIC "-//W3C//DTD SVG 20010904//EN"
 "http://www.w3.org/TR/2001/REC-SVG-20010904/DTD/svg10.dtd">
<svg version="1.0" xmlns="http://www.w3.org/2000/svg"
 width="91.000000pt" height="81.000000pt" viewBox="0 0 91.000000 81.000000"
 preserveAspectRatio="xMidYMid meet">

<g transform="translate(0.000000,81.000000) scale(0.100000,-0.100000)"
fill="#000000" stroke="none">
<path d="M370 637 c-78 -37 -130 -114 -130 -191 1 -144 156 -246 285 -187 200
91 139 394 -79 390 -28 0 -62 -6 -76 -12z m155 -16 c110 -50 147 -190 76 -288
-100 -138 -320 -81 -347 89 -18 109 78 218 191 218 22 0 58 -9 80 -19z"/>
<path d="M373 590 c-70 -31 -107 -115 -84 -190 6 -21 18 -43 26 -50 11 -9 9 0
-6 34 -26 60 -19 109 22 159 58 71 152 74 219 7 52 -52 61 -103 28 -168 -27
-54 -71 -84 -128 -86 -23 0 -36 -4 -31 -9 18 -18 93 5 132 40 64 58 75 136 29
211 -23 37 -88 72 -135 72 -16 0 -49 -9 -72 -20z"/>
<path d="M345 320 c9 -15 45 -32 45 -22 0 5 -12 14 -26 20 -14 7 -23 8 -19 2z"/>
<path d="M610 283 c0 -7 4 -14 10 -18 5 -3 7 -12 4 -20 -3 -8 13 -34 36 -59
47 -51 84 -60 95 -25 6 16 -3 31 -36 65 -24 24 -53 44 -64 44 -12 0 -26 5 -33
12 -9 9 -12 9 -12 1z m99 -65 c45 -47 49 -56 25 -65 -19 -7 -94 63 -94 89 0
30 25 21 69 -24z"/>
</g>
</svg>
